<?xml version="1.0" standalone="no"?>
<!DOCTYPE svg PUBLIC "-//W3C//DTD SVG 20010904//EN"
 "http://www.w3.org/TR/2001/REC-SVG-20010904/DTD/svg10.dtd">
<svg version="1.0" xmlns="http://www.w3.org/2000/svg"
 width="1024.000000pt" height="345.000000pt" viewBox="0 0 1024.000000 345.000000"
 preserveAspectRatio="xMidYMid meet">

<g transform="translate(0.000000,345.000000) scale(0.100000,-0.100000)"
fill="#000000" stroke="none">
<path d="M3288 1964 c-4 -159 -5 -305 -4 -324 1 -19 3 -137 4 -262 l2 -228
233 0 c200 0 245 3 311 20 211 54 348 195 392 402 20 92 13 228 -15 318 -37
117 -132 231 -241 289 -103 55 -152 63 -426 68 l-251 5 -5 -288z m555 38 c39
-19 78 -47 93 -67 82 -108 86 -344 7 -457 -58 -84 -140 -116 -315 -125 l-118
-6 0 348 0 347 133 -4 c126 -3 136 -5 200 -36z"/>
<path d="M6030 1700 l0 -550 350 0 350 0 0 105 0 105 -235 0 -235 0 0 439 0
439 -31 6 c-17 3 -69 6 -115 6 l-84 0 0 -550z"/>
<path d="M4586 1954 c-103 -33 -199 -123 -237 -222 -33 -87 -38 -230 -10 -320
54 -180 196 -282 391 -282 148 0 264 58 324 163 51 89 52 87 -69 87 -103 0
-108 -1 -127 -25 -29 -38 -71 -55 -130 -55 -81 0 -156 58 -173 135 -4 17 -9
38 -12 48 -4 16 14 17 276 17 l281 0 0 73 c-1 182 -68 300 -210 366 -70 32
-225 40 -304 15z m214 -162 c39 -21 80 -89 80 -134 l0 -28 -166 0 -167 0 6 36
c8 50 48 107 88 127 45 22 116 21 159 -1z"/>
<path d="M7043 1956 c-68 -22 -127 -61 -181 -121 -64 -70 -93 -143 -100 -253
-14 -241 138 -424 370 -448 180 -18 345 74 421 234 30 64 32 73 32 187 0 109
-2 125 -27 178 -38 80 -117 161 -197 199 -59 29 -77 32 -171 35 -69 2 -120 -2
-147 -11z m213 -186 c118 -58 152 -265 62 -380 -49 -63 -138 -87 -211 -56 -69
28 -127 132 -127 226 0 92 59 191 130 219 41 16 101 12 146 -9z"/>
<path d="M7955 1956 c-115 -36 -198 -109 -248 -214 -27 -58 -32 -80 -35 -169
-5 -116 10 -174 64 -260 140 -220 473 -242 657 -43 71 76 98 145 105 263 4 71
1 99 -17 155 -40 124 -140 225 -260 262 -73 23 -203 26 -266 6z m192 -177
c135 -51 175 -276 70 -395 -102 -117 -276 -67 -318 90 -19 71 -8 166 26 221
49 79 142 114 222 84z"/>
<path d="M8942 1955 c-23 -7 -58 -25 -77 -39 -18 -14 -36 -26 -39 -26 -3 0 -6
16 -6 35 l0 35 -110 0 -110 0 0 -565 0 -565 110 0 110 0 0 196 0 196 31 -26
c56 -47 96 -60 199 -60 78 0 104 4 147 23 147 65 243 274 215 464 -27 177
-103 288 -229 333 -48 17 -185 17 -241 -1z m148 -185 c21 -10 47 -37 65 -65
28 -45 30 -55 30 -144 0 -74 -5 -104 -19 -131 -42 -79 -89 -110 -169 -110 -67
0 -112 27 -147 90 -32 60 -41 199 -16 265 19 50 73 102 114 111 15 3 32 7 37
9 18 5 69 -7 105 -25z"/>
<path d="M5100 1950 c0 -6 61 -178 136 -383 75 -205 141 -384 146 -399 l10
-28 123 0 123 0 11 28 c6 15 71 191 145 392 73 201 137 373 141 383 7 16 -1
17 -106 15 l-114 -3 -95 -287 c-52 -159 -97 -288 -100 -288 -3 0 -48 129 -101
288 l-95 287 -112 3 c-77 2 -112 0 -112 -8z"/>
</g>
</svg>
