<svg width="200" height="60" viewBox="0 0 200 60" fill="none" xmlns="http://www.w3.org/2000/svg">
  <path d="M20 15H40C48.2843 15 55 21.7157 55 30C55 38.2843 48.2843 45 40 45H20V15Z" fill="#A7C7E7"/>
  <path d="M40 30C40 25.5817 43.5817 22 48 22H55V38H48C43.5817 38 40 34.4183 40 30Z" fill="#B5EAD7"/>
  <path d="M20 30C20 34.4183 23.5817 38 28 38H40V22H28C23.5817 22 20 25.5817 20 30Z" fill="#F9D5A7"/>
  <path d="M65 20H70.5L77.5 40H72.5L71 35.5H64.5L63 40H58L65 20ZM69.5 31.5L68 26.5C67.8333 26 67.6667 25.3333 67.5 24.5H67C66.8333 25.3333 66.6667 26 66.5 26.5L65 31.5H69.5Z" fill="#252525"/>
  <path d="M85 20C87.6667 20 89.6667 20.5833 91 21.75C92.3333 22.9167 93 24.5 93 26.5C93 28.5 92.3333 30.0833 91 31.25C89.6667 32.4167 87.6667 33 85 33H83V40H78V20H85ZM84.5 29C85.5 29 86.25 28.7917 86.75 28.375C87.25 27.9583 87.5 27.3333 87.5 26.5C87.5 25.6667 87.25 25.0417 86.75 24.625C86.25 24.2083 85.5 24 84.5 24H83V29H84.5Z" fill="#252525"/>
  <path d="M95 20H100V40H95V20Z" fill="#252525"/>
  <path d="M110 20C112.667 20 114.667 20.5833 116 21.75C117.333 22.9167 118 24.5 118 26.5C118 28.5 117.333 30.0833 116 31.25C114.667 32.4167 112.667 33 110 33H108V40H103V20H110ZM109.5 29C110.5 29 111.25 28.7917 111.75 28.375C112.25 27.9583 112.5 27.3333 112.5 26.5C112.5 25.6667 112.25 25.0417 111.75 24.625C111.25 24.2083 110.5 24 109.5 24H108V29H109.5Z" fill="#252525"/>
  <path d="M120 20H125V36H133V40H120V20Z" fill="#252525"/>
  <path d="M135 20H140V36H148V40H135V20Z" fill="#252525"/>
  <path d="M150 20H164V24H155V28H163V32H155V36H164V40H150V20Z" fill="#252525"/>
  <path d="M166 20H180V24H171V28H179V32H171V36H180V40H166V20Z" fill="#252525"/>
  <path d="M182 20H187V36H195V40H182V20Z" fill="#252525"/>
</svg>
